# xmcd CD database file
#
# Track frame offsets:
#	150
#	9952
#	26275
#	39316
#	51019
#	62197
#	74493
#	85310
#	99509
#	110926
#	123324
#	136849
#	149557
#	162437
#	175997
#	189473
#	235879
#	263253
#	280538
#	296641
#	308810
#
# Disc length: 4329 seconds
#
# Revision: 0
# Processed by: cddbd v1.5.2PL0 Copyright (c) Steve Scherf et al.
# Submitted via: CDex 1.70beta2
#
DISCID=2710e715
DTITLE=Nina Simone - The very best of Nina Simone
DYEAR=1900
DGENRE=Blues
TTITLE0=Ain't got no , I Got Life
TTITLE1=My Baby Just Cares For me
TTITLE2=Feeling Good
TTITLE3=I Put A Spell On You
TTITLE4=I Loves You Porgy
TTITLE5=Don't Let Me Be Misunderstood
TTITLE6=The Look Of Love
TTITLE7=I Wish I knew How it Would Fell To Be Free
TTITLE8=I Want A little Sugar In My Bowl
TTITLE9=Do I Move You
TTITLE10=Do What You Gotta Do
TTITLE11=To Be Young Gifted And Black
TTITLE12=Since I Fell For You
TTITLE13=Nobody's Fault But Mine
TTITLE14=I Think It's Going To Rain Today
TTITLE15=Sinnerman
TTITLE16=Times They Are A Chaangin
TTITLE17=Mr Bojangles
TTITLE18=Here Comes The Sun
TTITLE19=To Love Somebody
TTITLE20=Ain't Got No , I Got Life Remix
EXTD=
EXTT0=
EXTT1=
EXTT2=
EXTT3=
EXTT4=
EXTT5=
EXTT6=
EXTT7=
EXTT8=
EXTT9=
EXTT10=
EXTT11=
EXTT12=
EXTT13=
EXTT14=
EXTT15=
EXTT16=
EXTT17=
EXTT18=
EXTT19=
EXTT20=
PLAYORDER=
